<?xml version="1.0" encoding="UTF-8"?>
<svg xmlns="http://www.w3.org/2000/svg" xmlns:xlink="http://www.w3.org/1999/xlink" width="801pt" height="231pt" viewBox="0 0 801 231" version="1.1">
<g id="surface1">
<path style=" stroke:none;fill-rule:nonzero;fill:rgb(0%,0%,0%);fill-opacity:1;" d="M 316.519531 23.398438 C 295.527344 25.621094 277.898438 33.726562 264.089844 47.535156 C 257.015625 54.613281 252.167969 61.289062 247.886719 69.90625 C 243.78125 78.179688 241.839844 83.714844 240.1875 91.816406 C 237.105469 107.28125 237.21875 122.976562 240.527344 138.097656 C 244.007812 153.621094 250.910156 166.230469 261.808594 176.730469 C 264.832031 179.640625 267.628906 182.324219 267.96875 182.722656 C 278.410156 193.507812 281.605469 196.476562 285.882812 199.328125 C 299.917969 208.628906 315.324219 212.851562 335.175781 212.851562 C 352.519531 212.851562 368.207031 210.113281 379.5625 205.035156 L 382.8125 203.550781 L 382.8125 188.488281 C 382.8125 180.15625 382.644531 173.476562 382.414062 173.59375 C 378.648438 175.476562 370.832031 179.183594 369.863281 179.46875 L 368.550781 179.8125 L 368.550781 159.269531 L 364.214844 161.496094 C 358.28125 164.519531 351.4375 166.914062 344.761719 168.34375 C 337.742188 169.824219 323.878906 170.453125 317.320312 169.597656 C 311.5 168.800781 302.941406 166.003906 298.890625 163.550781 C 296.097656 161.894531 295.582031 161.210938 293.128906 156.300781 C 288.109375 146.199219 285.882812 132.847656 287.023438 119.378906 C 288.394531 102.773438 294.097656 90.21875 304.882812 80.0625 C 311.84375 73.441406 319.828125 69.277344 329.871094 66.9375 C 336.375 65.453125 352.75 65.625 360.394531 67.222656 C 367.183594 68.707031 372.945312 70.648438 378.421875 73.386719 C 380.53125 74.46875 382.414062 75.324219 382.585938 75.324219 C 382.699219 75.324219 382.8125 68.191406 382.8125 59.460938 L 382.8125 43.597656 L 377.851562 42.058594 C 375.054688 41.199219 371.917969 40.289062 370.832031 40.058594 L 368.835938 39.601562 L 368.664062 34.582031 L 368.496094 29.617188 L 366.554688 28.761719 C 363.074219 27.335938 353.945312 25.164062 347.328125 24.253906 C 339.398438 23.167969 323.253906 22.710938 316.519531 23.398438 Z M 316.519531 23.398438 "/>
<path style=" stroke:none;fill-rule:nonzero;fill:rgb(0%,0%,0%);fill-opacity:1;" d="M 29.667969 110.648438 L 29.667969 195.734375 L 43.929688 195.734375 L 43.929688 210 L 77.019531 210 L 77.019531 149.511719 L 90.597656 149.511719 C 98.070312 149.511719 106.34375 149.226562 108.96875 148.941406 C 130.476562 146.257812 149.019531 134.046875 156.949219 117.269531 C 160.144531 110.421875 161.570312 104.257812 161.910156 95.585938 C 162.3125 83.773438 160.828125 75.15625 156.949219 67.050781 C 153.925781 60.71875 150.101562 55.867188 144.851562 51.816406 C 142.398438 49.933594 139.71875 47.363281 138.863281 46.109375 C 134.011719 39.148438 123.800781 32.300781 113.988281 29.445312 C 102.464844 26.136719 101.78125 26.078125 64.355469 25.851562 L 29.667969 25.621094 Z M 108.511719 67.621094 C 112.5625 68.878906 113.019531 69.847656 113.359375 78.464844 C 114.214844 97.925781 104.117188 108.539062 83.75 109.394531 L 77.019531 109.738281 L 77.019531 66.082031 L 91.167969 66.367188 C 102.578125 66.539062 105.886719 66.765625 108.511719 67.621094 Z M 108.511719 67.621094 "/>
<path style=" stroke:none;fill-rule:nonzero;fill:rgb(0%,0%,0%);fill-opacity:1;" d="M 175.148438 110.707031 L 175.148438 195.734375 L 189.410156 195.734375 L 189.410156 210 L 221.929688 210 L 221.929688 39.945312 L 207.667969 39.945312 L 207.667969 25.679688 L 175.148438 25.679688 Z M 175.148438 110.707031 "/>
<path style=" stroke:none;fill-rule:nonzero;fill:rgb(0%,0%,0%);fill-opacity:1;" d="M 399.929688 110.707031 L 399.929688 195.734375 L 413.621094 195.734375 L 413.621094 210 L 446.710938 210 L 446.824219 171.652344 L 446.996094 133.363281 L 469.53125 164.519531 C 491.894531 195.503906 492.011719 195.734375 494.0625 195.734375 C 495.945312 195.789062 496.289062 196.132812 501.082031 202.867188 L 506.160156 210 L 527.210938 210 C 543.984375 210 548.261719 209.828125 547.863281 209.316406 C 547.636719 208.914062 532.34375 188.941406 513.859375 164.976562 C 483.453125 125.488281 480.316406 121.261719 480.941406 120.179688 C 481.285156 119.496094 495.433594 101.234375 512.378906 79.605469 L 543.128906 40.230469 L 518.027344 39.660156 L 519.625 37.664062 C 520.480469 36.578125 522.988281 33.441406 525.101562 30.644531 L 528.980469 25.679688 L 489.558594 25.679688 L 446.996094 84.914062 L 446.824219 62.429688 L 446.710938 39.945312 L 432.449219 39.945312 L 432.449219 25.679688 L 399.929688 25.679688 Z M 399.929688 110.707031 "/>
<path style=" stroke:none;fill-rule:nonzero;fill:rgb(0%,0%,0%);fill-opacity:1;" d="M 552.257812 110.707031 L 552.257812 195.734375 L 566.519531 195.734375 L 566.519531 210 L 663.507812 210 L 663.507812 182.609375 L 649.242188 182.609375 L 649.242188 168.34375 L 599.609375 168.34375 L 599.609375 39.945312 L 584.777344 39.945312 L 584.777344 25.679688 L 552.257812 25.679688 Z M 552.257812 110.707031 "/>
<path style=" stroke:none;fill-rule:nonzero;fill:rgb(0%,0%,0%);fill-opacity:1;" d="M 673.207031 110.707031 L 673.207031 195.734375 L 687.46875 195.734375 L 687.46875 210 L 786.167969 210 L 786.167969 182.609375 L 771.902344 182.609375 L 771.902344 168.34375 L 720.558594 168.34375 L 720.558594 138.097656 L 777.609375 138.097656 L 777.609375 110.707031 L 763.347656 110.707031 L 763.347656 96.441406 L 720.558594 96.441406 L 720.558594 67.335938 L 782.171875 67.335938 L 782.171875 39.945312 L 767.910156 39.945312 L 767.910156 25.679688 L 673.207031 25.679688 Z M 673.207031 110.707031 "/>
</g>
</svg>
